<?xml version="1.0" encoding="UTF-8"?>
<!DOCTYPE svg PUBLIC "-//W3C//DTD SVG 1.1//EN" "http://www.w3.org/Graphics/SVG/1.1/DTD/svg11.dtd">
<!-- Creator: CorelDRAW -->
<svg xmlns="http://www.w3.org/2000/svg" xml:space="preserve" width="124.171mm" height="82.614mm" version="1.1" style="shape-rendering:geometricPrecision; text-rendering:geometricPrecision; image-rendering:optimizeQuality; fill-rule:evenodd; clip-rule:evenodd"
viewBox="0 0 12572.81 8365.01"
 xmlns:xlink="http://www.w3.org/1999/xlink"
 xmlns:xodm="http://www.corel.com/coreldraw/odm/2003">
 <defs>
  <style type="text/css">
   <![CDATA[
    .fil1 {fill:#2F2F2F}
    .fil0 {fill:#2F2F2F;fill-rule:nonzero}
   ]]>
  </style>
 </defs>
 <g id="Camada_x0020_1">
  <metadata id="CorelCorpID_0Corel-Layer"/>
  <g id="_2951247506432">
   <path class="fil0" d="M448.87 8008.48l62.29 -485.39 764.59 -691.57 500.42 0 -783.92 700.16 -283.5 242.7 -259.88 234.1zm-448.87 326.45l300.68 -1503.41 418.81 0 -300.68 1503.41 -418.81 0zm1033.06 0l-397.33 -620.7 309.28 -285.65 562.7 906.35 -474.65 0z"/>
   <polygon id="_1" class="fil0" points="1615.09,8334.94 1915.78,6831.53 2341.03,6831.53 2040.34,8334.94 "/>
   <polygon id="_2" class="fil0" points="2343.17,8334.94 2643.86,6831.53 2993.93,6831.53 3601.74,7836.67 3455.69,7832.37 3655.44,6831.53 4072.1,6831.53 3771.41,8334.94 3421.34,8334.94 2815.68,7329.8 2959.57,7334.09 2759.83,8334.94 "/>
   <path id="_3" class="fil0" d="M4894.68 8365.01c-151.77,0 -284.57,-27.93 -398.4,-83.77 -113.83,-55.84 -201.89,-133.51 -264.17,-233.03 -62.28,-99.51 -93.43,-214.42 -93.43,-344.71 0,-130.29 22.91,-250.57 68.73,-360.82 45.82,-110.26 110.96,-205.83 195.44,-286.72 84.48,-80.9 185.06,-143.55 301.76,-187.93 116.7,-44.39 246.63,-66.58 389.81,-66.58 150.34,0 280.28,23.63 389.82,70.88 109.54,47.26 197.95,115.98 265.25,206.18l-304.98 240.55c-50.11,-61.57 -104.52,-104.52 -163.23,-128.87 -58.7,-24.34 -127.43,-36.51 -206.18,-36.51 -77.32,0 -147.11,12.89 -209.4,38.66 -62.28,25.77 -115.61,62.28 -160,109.54 -44.39,47.25 -78.39,102.73 -102.01,166.44 -23.63,63.72 -35.44,132.8 -35.44,207.26 0,67.3 15.04,126.37 45.1,177.19 30.07,50.83 73.74,90.2 131.01,118.12 57.27,27.92 126.72,41.88 208.33,41.88 65.87,0 129.22,-10.74 190.07,-32.22 60.85,-21.48 122.06,-57.27 183.63,-107.38l161.08 311.42c-77.32,57.27 -166.81,101.66 -268.47,133.16 -101.66,31.5 -209.76,47.26 -324.31,47.26zm229.81 -246.99l113.83 -567 375.86 0 -126.72 633.58 -362.97 -66.57z"/>
   <polygon id="_4" class="fil0" points="5728,8334.94 6028.68,6831.53 6374.47,6831.53 6788.98,7856 6606.42,7856 7409.67,6831.53 7772.63,6831.53 7476.25,8334.94 7083.21,8334.94 7261.47,7424.3 7332.35,7422.15 6737.43,8186.74 6550.58,8186.74 6226.27,7420.01 6301.44,7426.45 6118.88,8334.94 "/>
   <path id="_5" class="fil0" d="M7776.94 8334.94l300.68 -1503.41 425.25 0 -300.68 1503.41 -425.25 0zm320.01 -1625.84l322.16 -326.45 420.95 0 -440.28 326.45 -302.83 0z"/>
   <path id="_6" class="fil0" d="M8505.01 8334.94l300.68 -1503.41 652.91 0c157.5,0 292.45,25.77 404.84,77.32 112.4,51.55 198.67,124.21 258.81,217.99 60.13,93.79 90.21,205.83 90.21,336.12 0,133.16 -22.91,253.07 -68.73,359.75 -45.82,106.67 -110.25,198.31 -193.29,274.92 -83.05,76.6 -181.84,135.31 -296.39,176.11 -114.54,40.81 -241.26,61.21 -380.15,61.21l-768.88 0zm493.98 -339.34l287.79 0c107.39,0 197.59,-22.19 270.61,-66.57 73.02,-44.39 128.87,-104.89 167.52,-181.49 38.66,-76.6 57.99,-162.87 57.99,-258.81 0,-67.29 -13.96,-124.56 -41.88,-171.82 -27.93,-47.25 -69.44,-83.4 -124.57,-108.45 -55.12,-25.06 -123.49,-37.59 -205.11,-37.59l-249.14 0 -163.22 824.73z"/>
   <polygon id="_7" class="fil0" points="10279.04,8334.94 10579.72,6831.53 11004.97,6831.53 10704.29,8334.94 "/>
   <path id="_8" class="fil0" d="M10826.7 8334.94l964.33 -1503.41 418.81 0 362.97 1503.41 -423.1 0 -268.47 -1301.52 167.52 0 -773.19 1301.52 -448.88 0zm420.95 -292.09l171.83 -313.57 734.52 0 47.26 313.57 -953.6 0z"/>
   <g>
    <path class="fil1" d="M5553.53 251.7c92.62,284.03 137.83,182.18 25.19,546.83 -89.9,291.15 -279.5,624.21 -576.34,445.11 -120.01,-72.44 -98.31,-111.92 -92.02,-245.12 7.95,-168.43 -132.49,-190.84 -215.44,-107.3 -128.29,129.22 39.78,203.54 73.48,245.9 17.05,249.96 -61.28,476.87 -334.54,322.67 -294.34,-166.07 -219.49,-449.18 -222.65,-509.47 -87.97,-67.42 -201.25,-90.73 -309.49,-118.02l415.21 1190.5 130.77 374.92c94.5,188.05 511.67,-719.77 1206.2,-757.51 604.26,-32.87 994.34,310.17 1439.64,525.52 46.49,-43.84 449.55,-1181.18 498.55,-1335.94l-318.03 106c10.62,238.66 75.01,245.62 -127.53,448.26 -254.77,254.89 -453.87,121.44 -419.25,-242.07 306.24,-202.57 -82.26,-406.46 -143.77,-210.8 -40.41,128.58 73.35,169.91 -46.63,277.53 -48.01,43.08 -163.36,94.5 -265.25,71.24 -196.84,-44.96 -284.43,-241.69 -342.24,-414.63 -97.55,-291.75 -120.78,-348.87 4.57,-595.24 -55.4,-108.89 -125.58,-201.99 -202.98,-270.09 -42.9,82.27 -128.09,167.71 -177.45,251.7z"/>
    <g>
     <path class="fil1" d="M4305.67 667.69l1174.8 0c-10.22,33.81 -19.58,62.77 -23.65,75.95 -35.2,113.98 -95.63,263.3 -180.38,349.4 -63.9,64.92 -117.62,72.99 -197.17,24.99 -7.36,-4.45 -21.7,-13.15 -30.71,-20.66 -1.26,-26.66 4.91,-77.64 5.96,-100.04 5.88,-124.75 -45.34,-248.03 -169.69,-293.36 -104.45,-38.07 -219.83,-1.46 -296.3,75.55 -93.09,93.77 -123.45,217.59 -48.22,331.53 21.13,32.01 47.82,58.67 77.03,83.22 2.22,1.85 4.53,3.74 6.88,5.61 -0.08,37.93 -3.18,76.68 -11.56,111.81 -1.57,6.57 -5.47,20.27 -10.44,32.9l-93.37 0c-6.15,-3.07 -11.23,-5.77 -14.54,-7.64 -81.9,-46.21 -137.29,-108.48 -154.75,-202.13 -6.32,-33.83 -7.13,-68.18 -5.34,-102.48 1.69,-32.16 7.06,-66.71 5.39,-98.58l-3.47 -66.26 -52.65 -40.36c-83.44,-63.96 -175.95,-95.61 -272.87,-121.56 94.35,-24.71 193.24,-37.88 295.05,-37.88zm1736.27 0l1607.2 0 -470.01 156.62 4.85 108.52c2.36,52.64 8.08,103.49 14.19,155.7 1.98,16.98 5.95,44.09 3.59,61.09 -4.5,32.44 -84.85,112.09 -106.23,133.45 -20.46,20.49 -45.84,43.39 -72.65,61.51l-95.24 0c-1.55,-3.7 -2.73,-6.81 -3.36,-8.68 -12.59,-37.01 -16.36,-81.69 -15.85,-124.38 61.68,-53.57 110.15,-121.66 120.83,-205.28 12.17,-95.53 -29.84,-184.56 -104.75,-242.93 -149.71,-116.63 -378.71,-80.08 -440.11,115.27 -16.97,53.98 -20.27,107.06 -10.48,162.67 2.71,15.41 8.37,33.61 11.89,49.76 -2.82,2.8 -5.75,5.47 -7.9,7.39 -30.23,27.13 -103.05,48.83 -143.17,39.67 -139.5,-31.85 -205.13,-208.45 -245.55,-329.33 -12.86,-38.49 -31.6,-89.62 -47.25,-141.06zm1809.39 0l415.81 0c644.75,0 1172.26,527.5 1172.26,1172.25l0 2608.21c0,644.75 -527.51,1172.25 -1172.26,1172.25l-3961.47 0c-644.75,0 -1172.25,-527.5 -1172.25,-1172.25l0 -2247.96c68.97,110.31 126.8,227.07 199.71,336.3 112.83,168.99 245.11,305.46 411.46,422.77 23.08,16.27 46.25,31.9 69.55,46.85l0 1398.21c0,296.56 242.63,539.19 539.18,539.19l1603.2 0 238.08 0 2010.89 0c296.56,0 539.19,-242.63 539.19,-539.19l0 -2520.52c0,-296.56 -242.63,-539.2 -539.19,-539.2l-583.76 0c24.4,-68.26 48.63,-136.57 72.68,-204.95 32.38,-92.03 66.1,-185.19 95.54,-278.17l61.38 -193.78zm-4695.96 947.05c66.68,-339.1 280.75,-626.96 572.11,-793.47l239.68 687.21c-94.54,97.25 -153.01,229.77 -153.01,375.3l0 380.81c-18.59,-16.34 -36.38,-33.37 -52.98,-51.2 -60.72,-65.27 -115.19,-146.73 -167.95,-218.77 -118.91,-162.36 -258.96,-293.27 -437.85,-379.88z"/>
     <path class="fil1" d="M5351.72 1888.35c648.83,-328.44 1697.09,377.79 2270.9,717.8 173.41,102.73 344.81,194.36 509.5,279.66 181.34,93.92 274.42,229.11 208.1,500.13 -92.78,184.62 -179.93,198.93 -364.61,313.25 -226.82,140.43 -827.99,534.55 -1244.93,764.52l-1032.87 -573.81c7.33,-380.11 18.69,-780.44 2.94,-1141.39 162.13,61.65 367.49,203.62 528.64,298.23 343.45,201.67 -74.78,908.07 413.24,623.42 55.02,-32.11 131.64,-78.89 204.28,-122.34 219,-131.03 624.04,-255.04 321.97,-455.84 -239.05,-146.97 -481.57,-286.02 -712.11,-434.47 -286.88,-184.75 -673.59,-469.81 -1009.3,-234.95 -368.37,257.6 -756.62,1010.86 -1596.68,418.47 -440.84,-310.85 -468.65,-665.67 -711.17,-894.73l1.82 -174.06c158.7,79.17 273.88,196.6 366.8,323.47 154.15,210.48 177.22,256.23 403.77,413.05 522,361.36 772.16,45.13 1010.76,-256.85 136.84,-173.2 201.03,-248.21 428.95,-363.58zm1288.87 2624c-236.98,125.94 -535.49,363.93 -771.11,203.4 -178.16,-121.35 -178.41,-273 -175.97,-541.9 0.54,-58.54 1.36,-117.99 2.37,-178.09l944.71 516.59z"/>
    </g>
    <g>
     <path class="fil1" d="M4391.1 4635.07l-0.05 -329.56 -157.49 -88.98c-26.43,-15.93 -53.32,-30.15 -80.06,-45.98 -20.64,-12.21 -61.69,-39.04 -81.25,-45.52l-0.23 321.66c6.94,13.8 22.83,18.7 35.58,26.27 12.2,7.25 28.61,16.4 41.28,23.83l160.12 92.04c24.95,14.08 55.09,35.33 82.1,46.25z"/>
     <path class="fil1" d="M4391.15 3909.35l-0.05 -329.42c-24.56,-9.9 -52.24,-28.6 -77.89,-42.79l-240.67 -137.45 -0.37 329.09c58.17,27.47 287.81,169.25 318.99,180.58z"/>
     <path class="fil1" d="M4390.73 3546.64l0.03 -203.76 -318.69 -169.12 0.14 192.5c46.24,18.66 283.21,167.3 318.52,180.38z"/>
     <path class="fil1" d="M4390.19 4271.93l0.88 -325.05 -316.78 -184.78 -2.19 329.25c24.4,10.29 52.44,28.63 78.12,43.38l239.97 137.2z"/>
     <path class="fil1" d="M4391.02 4677.03c-6.82,-15.79 -13.24,-14.97 -34.59,-26.98 -15.98,-8.99 -25.96,-14.64 -41.42,-23.85l-240.98 -138.7c-7.33,36.32 -1.97,145.52 -1.97,189.53 -0.01,66.41 -16.17,127.76 61.55,129.16 286.61,5.17 257.42,10.55 257.42,-129.16z"/>
     <path class="fil1" d="M4904.14 4635.07l-0.05 -329.56 -157.49 -88.98c-26.43,-15.93 -53.32,-30.15 -80.06,-45.98 -20.64,-12.21 -61.7,-39.04 -81.26,-45.52l-0.22 321.66c6.94,13.8 22.82,18.7 35.58,26.27 12.2,7.25 28.61,16.4 41.27,23.83l160.12 92.04c24.96,14.08 55.1,35.33 82.11,46.25z"/>
     <path class="fil1" d="M4904.19 3909.35l-0.05 -329.42c-24.56,-9.9 -52.25,-28.6 -77.89,-42.79l-240.67 -137.45 -0.37 329.09c58.17,27.47 287.81,169.25 318.99,180.58z"/>
     <path class="fil1" d="M4903.23 4271.93l0.88 -325.05 -316.79 -184.78 -2.18 329.25c24.39,10.29 52.44,28.63 78.12,43.38l239.97 137.2z"/>
     <path class="fil1" d="M4904.06 4677.03c-6.82,-15.79 -13.25,-14.97 -34.59,-26.98 -15.98,-8.99 -25.96,-14.64 -41.43,-23.85l-240.97 -138.7c-7.33,36.32 -1.98,145.52 -1.98,189.53 0,66.41 -16.16,127.76 61.56,129.16 286.61,5.17 257.42,10.55 257.42,-129.16z"/>
     <path class="fil1" d="M5417.18 4635.07l-0.05 -329.56 -157.5 -88.98c-26.43,-15.93 -53.32,-30.15 -80.05,-45.98 -20.64,-12.21 -61.7,-39.04 -81.26,-45.52l-0.23 321.66c6.95,13.8 22.83,18.7 35.58,26.27 12.21,7.25 28.61,16.4 41.28,23.83l160.12 92.04c24.95,14.08 55.1,35.33 82.11,46.25z"/>
     <path class="fil1" d="M5416.26 4271.93l0.88 -360.25 -316.78 -204.8 -2.19 364.92c24.4,11.39 52.45,31.72 78.13,48.07l239.96 152.06z"/>
     <path class="fil1" d="M5417.09 4677.03c-6.82,-15.79 -13.24,-14.97 -34.58,-26.98 -15.99,-8.99 -25.97,-14.64 -41.43,-23.85l-240.97 -138.7c-7.33,36.32 -1.98,145.52 -1.98,189.53 0,66.41 -16.16,127.76 61.56,129.16 286.61,5.17 257.41,10.55 257.41,-129.16z"/>
    </g>
   </g>
  </g>
 </g>
</svg>
